<svg width="42" height="42" viewBox="0 0 42 42" fill="none" xmlns="http://www.w3.org/2000/svg">
<path d="M4.10051 13.947C3.55426 11.2402 5.30578 8.60302 8.01264 8.05677L27.6174 4.10051C30.3243 3.55426 32.9615 5.30578 33.5077 8.01264L37.464 27.6174C38.0102 30.3243 36.2587 32.9615 33.5518 33.5077L13.947 37.464C11.2402 38.0102 8.60302 36.2587 8.05677 33.5518L4.10051 13.947Z" fill="#76BD80"/>
<path d="M20.3007 13.5687L20.3207 13.5642C22.5636 13.0589 25.099 13.2914 27.0775 14.4141L25.5786 16.6339C24.462 15.7876 22.5979 15.639 20.8757 16.0271C18.6127 16.5369 17.3635 17.2497 17.6115 18.3505C18.1748 20.8507 27.7275 16.3653 28.9382 21.7388C29.6403 24.8547 26.7022 26.4774 22.8573 27.3437C20.314 27.9167 17.6626 27.7299 15.6842 26.6072L17.1588 24.3733C18.2954 25.2151 20.2797 25.3365 22.2823 24.8853C24.0045 24.4973 26.0368 23.8041 25.7467 22.5167C25.1876 20.0352 15.6149 24.5251 14.4 19.1329C13.782 16.3902 15.9151 14.5569 20.3007 13.5687Z" fill="#131313"/>
<path d="M27.2214 2.14038C31.011 1.37564 34.7038 3.82735 35.4685 7.61694L39.4246 27.2214C40.1893 31.011 37.7366 34.7038 33.947 35.4685L14.3425 39.4246C10.553 40.1892 6.86117 37.7366 6.09644 33.947L2.14038 14.3425C1.37568 10.553 3.82742 6.86122 7.61694 6.09644L27.2214 2.14038Z" stroke="#131313" stroke-width="4"/>
</svg>
